<svg version="1.1" xmlns="http://www.w3.org/2000/svg" xmlns:xlink="http://www.w3.org/1999/xlink" width="732" height="1107"><defs/><g><g transform="translate(-142,-54) scale(1,1)"><rect fill="#C0C0C0" stroke="none" x="311" y="71" width="160" height="147" opacity="0.2"/></g><g transform="translate(-142,-54) scale(1,1)"><rect fill="#ffffff" stroke="none" x="304" y="64" width="160" height="147"/></g><g transform="translate(-142,-54) scale(1,1)"><path fill="none" stroke="#000000" d="M 304 64 L 464 64 L 464 211 L 304 211 L 304 64 Z Z" stroke-miterlimit="10"/></g><g transform="translate(-142,-54) scale(1,1)"><path fill="none" stroke="#000000" d="M 304 89 L 464 89" stroke-miterlimit="10"/></g><g transform="translate(-142,-54) scale(1,1)"><path fill="none" stroke="#000000" d="M 304 202 L 464 202" stroke-miterlimit="10"/></g><g transform="translate(-142,-54) scale(1,1)"><g><path fill="none" stroke="none"/><text fill="#000000" stroke="none" font-family="Arial" font-size="13px" font-style="normal" font-weight="bold" text-decoration="none" x="369.54638671875" y="82">User</text></g></g><g transform="translate(-142,-54) scale(1,1)"><g><path fill="none" stroke="none"/><text fill="#000000" stroke="none" font-family="Arial" font-size="13px" font-style="normal" font-weight="normal" text-decoration="none" x="309" y="105">+id: string</text></g></g><g transform="translate(-142,-54) scale(1,1)"><g><path fill="none" stroke="none"/><text fill="#000000" stroke="none" font-family="Arial" font-size="13px" font-style="normal" font-weight="normal" text-decoration="none" x="309" y="120">+firstName: string</text></g></g><g transform="translate(-142,-54) scale(1,1)"><g><path fill="none" stroke="none"/><text fill="#000000" stroke="none" font-family="Arial" font-size="13px" font-style="normal" font-weight="normal" text-decoration="none" x="309" y="135">+lastName: string</text></g></g><g transform="translate(-142,-54) scale(1,1)"><g><path fill="none" stroke="none"/><text fill="#000000" stroke="none" font-family="Arial" font-size="13px" font-style="normal" font-weight="normal" text-decoration="none" x="309" y="150">+email: string</text></g></g><g transform="translate(-142,-54) scale(1,1)"><g><path fill="none" stroke="none"/><text fill="#000000" stroke="none" font-family="Arial" font-size="13px" font-style="normal" font-weight="normal" text-decoration="none" x="309" y="165">+phone: string</text></g></g><g transform="translate(-142,-54) scale(1,1)"><g><path fill="none" stroke="none"/><text fill="#000000" stroke="none" font-family="Arial" font-size="13px" font-style="normal" font-weight="normal" text-decoration="none" x="309" y="180">+password: string</text></g></g><g transform="translate(-142,-54) scale(1,1)"><g><path fill="none" stroke="none"/><text fill="#000000" stroke="none" font-family="Arial" font-size="13px" font-style="normal" font-weight="normal" text-decoration="none" x="309" y="195">+roleId: Role</text></g></g><g transform="translate(-142,-54) scale(1,1)"><rect fill="#C0C0C0" stroke="none" x="159" y="463" width="135" height="87" opacity="0.2"/></g><g transform="translate(-142,-54) scale(1,1)"><rect fill="#ffffff" stroke="none" x="152" y="456" width="135" height="87"/></g><g transform="translate(-142,-54) scale(1,1)"><path fill="none" stroke="#000000" d="M 152 456 L 287 456 L 287 543 L 152 543 L 152 456 Z Z" stroke-miterlimit="10"/></g><g transform="translate(-142,-54) scale(1,1)"><path fill="none" stroke="#000000" d="M 152 481 L 287 481" stroke-miterlimit="10"/></g><g transform="translate(-142,-54) scale(1,1)"><path fill="none" stroke="#000000" d="M 152 534 L 287 534" stroke-miterlimit="10"/></g><g transform="translate(-142,-54) scale(1,1)"><g><path fill="none" stroke="none"/><text fill="#000000" stroke="none" font-family="Arial" font-size="13px" font-style="normal" font-weight="bold" text-decoration="none" x="205.41455078125" y="474">Role</text></g></g><g transform="translate(-142,-54) scale(1,1)"><g><path fill="none" stroke="none"/><text fill="#000000" stroke="none" font-family="Arial" font-size="13px" font-style="normal" font-weight="normal" text-decoration="none" x="157" y="497">+id: string</text></g></g><g transform="translate(-142,-54) scale(1,1)"><g><path fill="none" stroke="none"/><text fill="#000000" stroke="none" font-family="Arial" font-size="13px" font-style="normal" font-weight="normal" text-decoration="none" x="157" y="512">+name: string</text></g></g><g transform="translate(-142,-54) scale(1,1)"><g><path fill="none" stroke="none"/><text fill="#000000" stroke="none" font-family="Arial" font-size="13px" font-style="normal" font-weight="normal" text-decoration="none" x="157" y="527">+description: string</text></g></g><g transform="translate(-142,-54) scale(1,1)"><path fill="none" stroke="#000000" d="M 239 455 L 350 212" stroke-miterlimit="10"/></g><g transform="translate(-142,-54) scale(1,1)"><g><path fill="none" stroke="none"/><text fill="#000000" stroke="none" font-family="Arial" font-size="13px" font-style="normal" font-weight="normal" text-decoration="none" x="255.5" y="451">1</text></g></g><g transform="translate(-142,-54) scale(1,1)"><g><path fill="none" stroke="none"/><text fill="#000000" stroke="none" font-family="Arial" font-size="13px" font-style="normal" font-weight="normal" text-decoration="none" x="351.5" y="234">1..*</text></g></g><g transform="translate(-142,-54) scale(1,1)"><rect fill="#C0C0C0" stroke="none" x="631" y="167" width="159" height="132" opacity="0.2"/></g><g transform="translate(-142,-54) scale(1,1)"><rect fill="#ffffff" stroke="none" x="624" y="160" width="159" height="132"/></g><g transform="translate(-142,-54) scale(1,1)"><path fill="none" stroke="#000000" d="M 624 160 L 783 160 L 783 292 L 624 292 L 624 160 Z Z" stroke-miterlimit="10"/></g><g transform="translate(-142,-54) scale(1,1)"><path fill="none" stroke="#000000" d="M 624 185 L 783 185" stroke-miterlimit="10"/></g><g transform="translate(-142,-54) scale(1,1)"><path fill="none" stroke="#000000" d="M 624 283 L 783 283" stroke-miterlimit="10"/></g><g transform="translate(-142,-54) scale(1,1)"><g><path fill="none" stroke="none"/><text fill="#000000" stroke="none" font-family="Arial" font-size="13px" font-style="normal" font-weight="bold" text-decoration="none" x="667.753173828125" y="178">Notification</text></g></g><g transform="translate(-142,-54) scale(1,1)"><g><path fill="none" stroke="none"/><text fill="#000000" stroke="none" font-family="Arial" font-size="13px" font-style="normal" font-weight="normal" text-decoration="none" x="629" y="201">+id: string</text></g></g><g transform="translate(-142,-54) scale(1,1)"><g><path fill="none" stroke="none"/><text fill="#000000" stroke="none" font-family="Arial" font-size="13px" font-style="normal" font-weight="normal" text-decoration="none" x="629" y="216">+userId: User</text></g></g><g transform="translate(-142,-54) scale(1,1)"><g><path fill="none" stroke="none"/><text fill="#000000" stroke="none" font-family="Arial" font-size="13px" font-style="normal" font-weight="normal" text-decoration="none" x="629" y="231">+title: string</text></g></g><g transform="translate(-142,-54) scale(1,1)"><g><path fill="none" stroke="none"/><text fill="#000000" stroke="none" font-family="Arial" font-size="13px" font-style="normal" font-weight="normal" text-decoration="none" x="629" y="246">+description: string</text></g></g><g transform="translate(-142,-54) scale(1,1)"><g><path fill="none" stroke="none"/><text fill="#000000" stroke="none" font-family="Arial" font-size="13px" font-style="normal" font-weight="normal" text-decoration="none" x="629" y="261">+isRead: boolean</text></g></g><g transform="translate(-142,-54) scale(1,1)"><g><path fill="none" stroke="none"/><text fill="#000000" stroke="none" font-family="Arial" font-size="13px" font-style="normal" font-weight="normal" text-decoration="none" x="629" y="275.5">+type: enum</text></g></g><g transform="translate(-142,-54) scale(1,1)"><path fill="none" stroke="#000000" d="M 623 204 L 465 160" stroke-miterlimit="10"/></g><g transform="translate(-142,-54) scale(1,1)"><g><path fill="none" stroke="none"/><text fill="#000000" stroke="none" font-family="Arial" font-size="13px" font-style="normal" font-weight="normal" text-decoration="none" x="591.5" y="186">0..*</text></g></g><g transform="translate(-142,-54) scale(1,1)"><g><path fill="none" stroke="none"/><text fill="#000000" stroke="none" font-family="Arial" font-size="13px" font-style="normal" font-weight="normal" text-decoration="none" x="479.5" y="155">1</text></g></g><g transform="translate(-142,-54) scale(1,1)"><rect fill="#C0C0C0" stroke="none" x="455" y="399" width="143" height="192" opacity="0.2"/></g><g transform="translate(-142,-54) scale(1,1)"><rect fill="#ffffff" stroke="none" x="448" y="392" width="143" height="192"/></g><g transform="translate(-142,-54) scale(1,1)"><path fill="none" stroke="#000000" d="M 448 392 L 591 392 L 591 584 L 448 584 L 448 392 Z Z" stroke-miterlimit="10"/></g><g transform="translate(-142,-54) scale(1,1)"><path fill="none" stroke="#000000" d="M 448 417 L 591 417" stroke-miterlimit="10"/></g><g transform="translate(-142,-54) scale(1,1)"><path fill="none" stroke="#000000" d="M 448 575 L 591 575" stroke-miterlimit="10"/></g><g transform="translate(-142,-54) scale(1,1)"><g><path fill="none" stroke="none"/><text fill="#000000" stroke="none" font-family="Arial" font-size="13px" font-style="normal" font-weight="bold" text-decoration="none" x="507.582275390625" y="410">Trip</text></g></g><g transform="translate(-142,-54) scale(1,1)"><g><path fill="none" stroke="none"/><text fill="#000000" stroke="none" font-family="Arial" font-size="13px" font-style="normal" font-weight="normal" text-decoration="none" x="453" y="433">+id: string</text></g></g><g transform="translate(-142,-54) scale(1,1)"><g><path fill="none" stroke="none"/><text fill="#000000" stroke="none" font-family="Arial" font-size="13px" font-style="normal" font-weight="normal" text-decoration="none" x="453" y="448">+driverId: User</text></g></g><g transform="translate(-142,-54) scale(1,1)"><g><path fill="none" stroke="none"/><text fill="#000000" stroke="none" font-family="Arial" font-size="13px" font-style="normal" font-weight="normal" text-decoration="none" x="453" y="463">+vehicleId: Vehicle</text></g></g><g transform="translate(-142,-54) scale(1,1)"><g><path fill="none" stroke="none"/><text fill="#000000" stroke="none" font-family="Arial" font-size="13px" font-style="normal" font-weight="normal" text-decoration="none" x="453" y="478">+startLocation: string</text></g></g><g transform="translate(-142,-54) scale(1,1)"><g><path fill="none" stroke="none"/><text fill="#000000" stroke="none" font-family="Arial" font-size="13px" font-style="normal" font-weight="normal" text-decoration="none" x="453" y="493">+endLocation: string</text></g></g><g transform="translate(-142,-54) scale(1,1)"><g><path fill="none" stroke="none"/><text fill="#000000" stroke="none" font-family="Arial" font-size="13px" font-style="normal" font-weight="normal" text-decoration="none" x="453" y="508">+startDate: Date</text></g></g><g transform="translate(-142,-54) scale(1,1)"><g><path fill="none" stroke="none"/><text fill="#000000" stroke="none" font-family="Arial" font-size="13px" font-style="normal" font-weight="normal" text-decoration="none" x="453" y="523">+endDate: Date</text></g></g><g transform="translate(-142,-54) scale(1,1)"><g><path fill="none" stroke="none"/><text fill="#000000" stroke="none" font-family="Arial" font-size="13px" font-style="normal" font-weight="normal" text-decoration="none" x="453" y="537.5">+status: enum</text></g></g><g transform="translate(-142,-54) scale(1,1)"><g><path fill="none" stroke="none"/><text fill="#000000" stroke="none" font-family="Arial" font-size="13px" font-style="normal" font-weight="normal" text-decoration="none" x="453" y="553">+fuelLiters: number</text></g></g><g transform="translate(-142,-54) scale(1,1)"><g><path fill="none" stroke="none"/><text fill="#000000" stroke="none" font-family="Arial" font-size="13px" font-style="normal" font-weight="normal" text-decoration="none" x="453" y="568">+remarks: string</text></g></g><g transform="translate(-142,-54) scale(1,1)"><path fill="none" stroke="#000000" d="M 482 391 L 413 212" stroke-miterlimit="10"/></g><g transform="translate(-142,-54) scale(1,1)"><g><path fill="none" stroke="none"/><text fill="#000000" stroke="none" font-family="Arial" font-size="13px" font-style="normal" font-weight="normal" text-decoration="none" x="487.5" y="380">1..*</text></g></g><g transform="translate(-142,-54) scale(1,1)"><g><path fill="none" stroke="none"/><text fill="#000000" stroke="none" font-family="Arial" font-size="13px" font-style="normal" font-weight="normal" text-decoration="none" x="428.5" y="233">1</text></g></g><g transform="translate(-142,-54) scale(1,1)"><rect fill="#C0C0C0" stroke="none" x="735" y="655" width="136" height="147" opacity="0.2"/></g><g transform="translate(-142,-54) scale(1,1)"><rect fill="#ffffff" stroke="none" x="728" y="648" width="136" height="147"/></g><g transform="translate(-142,-54) scale(1,1)"><path fill="none" stroke="#000000" d="M 728 648 L 864 648 L 864 795 L 728 795 L 728 648 Z Z" stroke-miterlimit="10"/></g><g transform="translate(-142,-54) scale(1,1)"><path fill="none" stroke="#000000" d="M 728 673 L 864 673" stroke-miterlimit="10"/></g><g transform="translate(-142,-54) scale(1,1)"><path fill="none" stroke="#000000" d="M 728 786 L 864 786" stroke-miterlimit="10"/></g><g transform="translate(-142,-54) scale(1,1)"><g><path fill="none" stroke="none"/><text fill="#000000" stroke="none" font-family="Arial" font-size="13px" font-style="normal" font-weight="bold" text-decoration="none" x="773.595947265625" y="666">Vehicle</text></g></g><g transform="translate(-142,-54) scale(1,1)"><g><path fill="none" stroke="none"/><text fill="#000000" stroke="none" font-family="Arial" font-size="13px" font-style="normal" font-weight="normal" text-decoration="none" x="733" y="689">+id: string</text></g></g><g transform="translate(-142,-54) scale(1,1)"><g><path fill="none" stroke="none"/><text fill="#000000" stroke="none" font-family="Arial" font-size="13px" font-style="normal" font-weight="normal" text-decoration="none" x="733" y="704">+plateNumber: int</text></g></g><g transform="translate(-142,-54) scale(1,1)"><g><path fill="none" stroke="none"/><text fill="#000000" stroke="none" font-family="Arial" font-size="13px" font-style="normal" font-weight="normal" text-decoration="none" x="733" y="718.5">+status: enum</text></g></g><g transform="translate(-142,-54) scale(1,1)"><g><path fill="none" stroke="none"/><text fill="#000000" stroke="none" font-family="Arial" font-size="13px" font-style="normal" font-weight="normal" text-decoration="none" x="733" y="734">+brand: string</text></g></g><g transform="translate(-142,-54) scale(1,1)"><g><path fill="none" stroke="none"/><text fill="#000000" stroke="none" font-family="Arial" font-size="13px" font-style="normal" font-weight="normal" text-decoration="none" x="733" y="749">+currentKm: number</text></g></g><g transform="translate(-142,-54) scale(1,1)"><g><path fill="none" stroke="none"/><text fill="#000000" stroke="none" font-family="Arial" font-size="13px" font-style="normal" font-weight="normal" text-decoration="none" x="733" y="763.5">+status: enum</text></g></g><g transform="translate(-142,-54) scale(1,1)"><g><path fill="none" stroke="none"/><text fill="#000000" stroke="none" font-family="Arial" font-size="13px" font-style="normal" font-weight="normal" text-decoration="none" x="733" y="779">+model: string</text></g></g><g transform="translate(-142,-54) scale(1,1)"><path fill="none" stroke="#000000" d="M 592 549 L 727 663" stroke-miterlimit="10"/></g><g transform="translate(-142,-54) scale(1,1)"><g><path fill="none" stroke="none"/><text fill="#000000" stroke="none" font-family="Arial" font-size="13px" font-style="normal" font-weight="normal" text-decoration="none" x="596.5" y="586">1..*</text></g></g><g transform="translate(-142,-54) scale(1,1)"><g><path fill="none" stroke="none"/><text fill="#000000" stroke="none" font-family="Arial" font-size="13px" font-style="normal" font-weight="normal" text-decoration="none" x="699.5" y="670">1</text></g></g><g transform="translate(-142,-54) scale(1,1)"><rect fill="#C0C0C0" stroke="none" x="215" y="791" width="171.9443359375" height="162" opacity="0.2"/></g><g transform="translate(-142,-54) scale(1,1)"><rect fill="#ffffff" stroke="none" x="208" y="784" width="171.9443359375" height="162"/></g><g transform="translate(-142,-54) scale(1,1)"><path fill="none" stroke="#000000" d="M 208 784 L 379.9443359375 784 L 379.9443359375 946 L 208 946 L 208 784 Z Z" stroke-miterlimit="10"/></g><g transform="translate(-142,-54) scale(1,1)"><path fill="none" stroke="#000000" d="M 208 809 L 379.9443359375 809" stroke-miterlimit="10"/></g><g transform="translate(-142,-54) scale(1,1)"><path fill="none" stroke="#000000" d="M 208 937 L 379.9443359375 937" stroke-miterlimit="10"/></g><g transform="translate(-142,-54) scale(1,1)"><g><path fill="none" stroke="none"/><text fill="#000000" stroke="none" font-family="Arial" font-size="13px" font-style="normal" font-weight="bold" text-decoration="none" x="254.600830078125" y="802">Maintenance</text></g></g><g transform="translate(-142,-54) scale(1,1)"><g><path fill="none" stroke="none"/><text fill="#000000" stroke="none" font-family="Arial" font-size="13px" font-style="normal" font-weight="normal" text-decoration="none" x="213" y="825">+id: string</text></g></g><g transform="translate(-142,-54) scale(1,1)"><g><path fill="none" stroke="none"/><text fill="#000000" stroke="none" font-family="Arial" font-size="13px" font-style="normal" font-weight="normal" text-decoration="none" x="213" y="840">+maintenanceRuleId: MR</text></g></g><g transform="translate(-142,-54) scale(1,1)"><g><path fill="none" stroke="none"/><text fill="#000000" stroke="none" font-family="Arial" font-size="13px" font-style="normal" font-weight="normal" text-decoration="none" x="213" y="855">+description: string</text></g></g><g transform="translate(-142,-54) scale(1,1)"><g><path fill="none" stroke="none"/><text fill="#000000" stroke="none" font-family="Arial" font-size="13px" font-style="normal" font-weight="normal" text-decoration="none" x="213" y="870">+cost: string</text></g></g><g transform="translate(-142,-54) scale(1,1)"><g><path fill="none" stroke="none"/><text fill="#000000" stroke="none" font-family="Arial" font-size="13px" font-style="normal" font-weight="normal" text-decoration="none" x="213" y="885">+date: Date</text></g></g><g transform="translate(-142,-54) scale(1,1)"><g><path fill="none" stroke="none"/><text fill="#000000" stroke="none" font-family="Arial" font-size="13px" font-style="normal" font-weight="normal" text-decoration="none" x="213" y="900">+vehicleId: string</text></g></g><g transform="translate(-142,-54) scale(1,1)"><g><path fill="none" stroke="none"/><text fill="#000000" stroke="none" font-family="Arial" font-size="13px" font-style="normal" font-weight="normal" text-decoration="none" x="213" y="915">+kmAtMaintenance: number</text></g></g><g transform="translate(-142,-54) scale(1,1)"><g><path fill="none" stroke="none"/><text fill="#000000" stroke="none" font-family="Arial" font-size="13px" font-style="normal" font-weight="normal" text-decoration="none" x="213" y="930">+targetType: enum</text></g></g><g transform="translate(-142,-54) scale(1,1)"><rect fill="#C0C0C0" stroke="none" x="183" y="1071" width="150.984375" height="87" opacity="0.2"/></g><g transform="translate(-142,-54) scale(1,1)"><rect fill="#ffffff" stroke="none" x="176" y="1064" width="150.984375" height="87"/></g><g transform="translate(-142,-54) scale(1,1)"><path fill="none" stroke="#000000" d="M 176 1064 L 326.984375 1064 L 326.984375 1151 L 176 1151 L 176 1064 Z Z" stroke-miterlimit="10"/></g><g transform="translate(-142,-54) scale(1,1)"><path fill="none" stroke="#000000" d="M 176 1089 L 326.984375 1089" stroke-miterlimit="10"/></g><g transform="translate(-142,-54) scale(1,1)"><path fill="none" stroke="#000000" d="M 176 1142 L 326.984375 1142" stroke-miterlimit="10"/></g><g transform="translate(-142,-54) scale(1,1)"><g><path fill="none" stroke="none"/><text fill="#000000" stroke="none" font-family="Arial" font-size="13px" font-style="normal" font-weight="bold" text-decoration="none" x="198.035400390625" y="1082">MaintenanceRule</text></g></g><g transform="translate(-142,-54) scale(1,1)"><g><path fill="none" stroke="none"/><text fill="#000000" stroke="none" font-family="Arial" font-size="13px" font-style="normal" font-weight="normal" text-decoration="none" x="181" y="1105">+id: string</text></g></g><g transform="translate(-142,-54) scale(1,1)"><g><path fill="none" stroke="none"/><text fill="#000000" stroke="none" font-family="Arial" font-size="13px" font-style="normal" font-weight="normal" text-decoration="none" x="181" y="1119.5">+type: enum</text></g></g><g transform="translate(-142,-54) scale(1,1)"><g><path fill="none" stroke="none"/><text fill="#000000" stroke="none" font-family="Arial" font-size="13px" font-style="normal" font-weight="normal" text-decoration="none" x="181" y="1135">+recommendedKm: float</text></g></g><g transform="translate(-142,-54) scale(1,1)"><path fill="none" stroke="#000000" d="M 259 1063 L 279 947" stroke-miterlimit="10"/></g><g transform="translate(-142,-54) scale(1,1)"><g><path fill="none" stroke="none"/><text fill="#000000" stroke="none" font-family="Arial" font-size="13px" font-style="normal" font-weight="normal" text-decoration="none" x="269.5" y="1052">1</text></g></g><g transform="translate(-142,-54) scale(1,1)"><g><path fill="none" stroke="none"/><text fill="#000000" stroke="none" font-family="Arial" font-size="13px" font-style="normal" font-weight="normal" text-decoration="none" x="287.5" y="970">0..*</text></g></g><g transform="translate(-142,-54) scale(1,1)"><rect fill="#C0C0C0" stroke="none" x="655" y="943" width="152" height="132" opacity="0.2"/></g><g transform="translate(-142,-54) scale(1,1)"><rect fill="#ffffff" stroke="none" x="648" y="936" width="152" height="132"/></g><g transform="translate(-142,-54) scale(1,1)"><path fill="none" stroke="#000000" d="M 648 936 L 800 936 L 800 1068 L 648 1068 L 648 936 Z Z" stroke-miterlimit="10"/></g><g transform="translate(-142,-54) scale(1,1)"><path fill="none" stroke="#000000" d="M 648 961 L 800 961" stroke-miterlimit="10"/></g><g transform="translate(-142,-54) scale(1,1)"><path fill="none" stroke="#000000" d="M 648 1059 L 800 1059" stroke-miterlimit="10"/></g><g transform="translate(-142,-54) scale(1,1)"><g><path fill="none" stroke="none"/><text fill="#000000" stroke="none" font-family="Arial" font-size="13px" font-style="normal" font-weight="bold" text-decoration="none" x="712.196533203125" y="954">Tire</text></g></g><g transform="translate(-142,-54) scale(1,1)"><g><path fill="none" stroke="none"/><text fill="#000000" stroke="none" font-family="Arial" font-size="13px" font-style="normal" font-weight="normal" text-decoration="none" x="653" y="977">+id: string</text></g></g><g transform="translate(-142,-54) scale(1,1)"><g><path fill="none" stroke="none"/><text fill="#000000" stroke="none" font-family="Arial" font-size="13px" font-style="normal" font-weight="normal" text-decoration="none" x="653" y="992">+serialNumber: number</text></g></g><g transform="translate(-142,-54) scale(1,1)"><g><path fill="none" stroke="none"/><text fill="#000000" stroke="none" font-family="Arial" font-size="13px" font-style="normal" font-weight="normal" text-decoration="none" x="653" y="1007">+wearLevel: string</text></g></g><g transform="translate(-142,-54) scale(1,1)"><g><path fill="none" stroke="none"/><text fill="#000000" stroke="none" font-family="Arial" font-size="13px" font-style="normal" font-weight="normal" text-decoration="none" x="653" y="1022">+position: string</text></g></g><g transform="translate(-142,-54) scale(1,1)"><g><path fill="none" stroke="none"/><text fill="#000000" stroke="none" font-family="Arial" font-size="13px" font-style="normal" font-weight="normal" text-decoration="none" x="653" y="1037">+installedOn: enum</text></g></g><g transform="translate(-142,-54) scale(1,1)"><g><path fill="none" stroke="none"/><text fill="#000000" stroke="none" font-family="Arial" font-size="13px" font-style="normal" font-weight="normal" text-decoration="none" x="653" y="1052">+vehicleId: string</text></g></g><g transform="translate(-142,-54) scale(1,1)"><path fill="none" stroke="#000000" d="M 741 935 L 777 796" stroke-miterlimit="10"/></g><g transform="translate(-142,-54) scale(1,1)"><g><path fill="none" stroke="none"/><text fill="#000000" stroke="none" font-family="Arial" font-size="13px" font-style="normal" font-weight="normal" text-decoration="none" x="758.220458984375" y="925">*</text></g></g><g transform="translate(-142,-54) scale(1,1)"><g><path fill="none" stroke="none"/><text fill="#000000" stroke="none" font-family="Arial" font-size="13px" font-style="normal" font-weight="normal" text-decoration="none" x="780.5" y="821">1</text></g></g><g transform="translate(-142,-54) scale(1,1)"><path fill="none" stroke="#000000" d="M 381 840 L 727 741" stroke-miterlimit="10"/></g><g transform="translate(-142,-54) scale(1,1)"><g><path fill="none" stroke="none"/><text fill="#000000" stroke="none" font-family="Arial" font-size="13px" font-style="normal" font-weight="normal" text-decoration="none" x="389.5" y="856">1..*</text></g></g><g transform="translate(-142,-54) scale(1,1)"><g><path fill="none" stroke="none"/><text fill="#000000" stroke="none" font-family="Arial" font-size="13px" font-style="normal" font-weight="normal" text-decoration="none" x="705.5" y="763">1</text></g></g></g></svg>